<?xml version="1.0" encoding="UTF-8" standalone="no"?>
<svg
   xmlns:dc="http://purl.org/dc/elements/1.1/"
   xmlns:cc="http://creativecommons.org/ns#"
   xmlns:rdf="http://www.w3.org/1999/02/22-rdf-syntax-ns#"
   xmlns:svg="http://www.w3.org/2000/svg"
   xmlns="http://www.w3.org/2000/svg"
   xmlns:sodipodi="http://sodipodi.sourceforge.net/DTD/sodipodi-0.dtd"
   xmlns:inkscape="http://www.inkscape.org/namespaces/inkscape"
   inkscape:version="1.0 (1.0+r72)"
   sodipodi:docname="aquila_title.svg"
   id="svg8"
   version="1.1"
   viewBox="0 0 297 210"
   height="210mm"
   width="297mm">
  <defs
     id="defs2">
    <rect
       id="rect1951"
       height="53.520035"
       width="132.88636"
       y="99.64019"
       x="43.272691" />
    <rect
       id="rect12"
       height="82.202529"
       width="177.38745"
       y="95.893166"
       x="28.772215" />
  </defs>
  <sodipodi:namedview
     inkscape:window-maximized="0"
     inkscape:window-y="0"
     inkscape:window-x="0"
     inkscape:window-height="883"
     inkscape:window-width="1919"
     showgrid="false"
     inkscape:document-rotation="0"
     inkscape:current-layer="text10"
     inkscape:document-units="mm"
     inkscape:cy="75.126778"
     inkscape:cx="494.65672"
     inkscape:zoom="0.98994949"
     inkscape:pageshadow="2"
     inkscape:pageopacity="0.0"
     borderopacity="1.0"
     bordercolor="#666666"
     pagecolor="#ffffff"
     id="base" />
  <metadata
     id="metadata5">
    <rdf:RDF>
      <cc:Work
         rdf:about="">
        <dc:format>image/svg+xml</dc:format>
        <dc:type
           rdf:resource="http://purl.org/dc/dcmitype/StillImage" />
        <dc:title></dc:title>
      </cc:Work>
    </rdf:RDF>
  </metadata>
  <g
     id="layer1"
     inkscape:groupmode="layer"
     inkscape:label="Layer 1">
    <g
       style="font-style:normal;font-weight:normal;font-size:50.8px;line-height:1.45;font-family:sans-serif;white-space:pre;shape-inside:url(#rect12);fill:#b5d6dd;fill-opacity:1;stroke:none"
       id="text10"
       transform="matrix(2.3282053,0,0,2.4330482,-61.549681,-309.74964)"
       aria-label="AQUILA">
      <path
         id="path2829"
         style="font-style:normal;font-variant:normal;font-weight:normal;font-stretch:normal;font-size:25.4px;font-family:Neuropolitical;-inkscape-font-specification:'Neuropolitical, Normal';font-variant-ligatures:normal;font-variant-caps:normal;font-variant-numeric:normal;font-variant-east-asian:normal;fill:#b5d6dd;fill-opacity:1"
         d="m 47.872284,143.20644 h -11.9888 l -2.4638,3.9878 h -4.445 l 10.0584,-16.002 q 0.4572,-0.7366 1.0922,-1.2192 0.635,-0.4826 1.8288,-0.4826 1.1684,0 1.8034,0.4826 0.635,0.4826 1.0922,1.2192 l 10.0076,16.002 h -4.4704 z m -10.1854,-2.9718 h 8.382 l -4.191,-6.8326 z" />
      <path
         id="path2831"
         style="font-style:normal;font-variant:normal;font-weight:normal;font-stretch:normal;font-size:25.4px;font-family:Neuropolitical;-inkscape-font-specification:'Neuropolitical, Normal';font-variant-ligatures:normal;font-variant-caps:normal;font-variant-numeric:normal;font-variant-east-asian:normal;fill:#b5d6dd;fill-opacity:1"
         d="m 71.801465,149.68344 -2.4892,-2.667 h -7.264399 q -1.9304,0 -3.2004,-0.2794 -1.27,-0.3048 -2.032,-0.9906 -0.762,-0.6858 -1.0922,-1.8034 -0.3048,-1.1176 -0.3048,-2.7686 v -5.3594 q 0,-1.6256 0.3048,-2.7686 0.3302,-1.143 1.0922,-1.8288 0.762,-0.7112 2.032,-1.016 1.27,-0.3302 3.2004,-0.3302 h 6.578599 q 1.9304,0 3.2004,0.3302 1.27,0.3048 2.032,1.016 0.762,0.6858 1.0668,1.8288 0.3302,1.143 0.3302,2.7686 v 5.3594 q 0,1.905 -0.4318,3.1242 -0.4318,1.1938 -1.5494,1.8542 l 3.2766,3.5306 z m -0.4064,-13.6906 q 0,-0.8128 -0.1524,-1.3462 -0.127,-0.5334 -0.4572,-0.8636 -0.3302,-0.3302 -0.9144,-0.4572 -0.5588,-0.127 -1.397,-0.127 h -6.248399 q -0.9144,0 -1.4986,0.127 -0.5588,0.127 -0.889,0.4572 -0.3302,0.3302 -0.4572,0.8636 -0.1016,0.5334 -0.1016,1.3462 v 4.4196 q 0,1.0414 0.0762,1.7018 0.1016,0.6604 0.4064,1.0414 0.3048,0.381 0.889,0.5334 0.5842,0.127 1.5748,0.127 h 6.248399 q 0.8382,0 1.397,-0.1016 0.5842,-0.127 0.9144,-0.4318 0.3302,-0.3302 0.4572,-0.8636 0.1524,-0.5588 0.1524,-1.397 z" />
      <path
         id="path2833"
         style="font-style:normal;font-variant:normal;font-weight:normal;font-stretch:normal;font-size:25.4px;font-family:Neuropolitical;-inkscape-font-specification:'Neuropolitical, Normal';font-variant-ligatures:normal;font-variant-caps:normal;font-variant-numeric:normal;font-variant-east-asian:normal;fill:#b5d6dd;fill-opacity:1"
         d="m 84.422884,147.19424 q -1.905,0 -3.175,-0.3048 -1.27,-0.3302 -2.032,-1.016 -0.762,-0.7112 -1.0922,-1.8288 -0.3048,-1.143 -0.3048,-2.794 v -11.3792 h 3.8862 v 11.2522 q 0,0.8128 0.1524,1.3462 0.1778,0.508 0.5334,0.8382 0.3556,0.3302 0.9398,0.4572 0.6096,0.127 1.4732,0.127 h 5.8166 q 0.8636,0 1.4478,-0.127 0.6096,-0.127 0.9652,-0.4572 0.3556,-0.3302 0.508,-0.8636 0.1778,-0.5334 0.1778,-1.3462 v -11.2268 h 3.8354 v 11.3792 q 0,1.651 -0.3302,2.794 -0.3048,1.1176 -1.0668,1.8288 -0.762,0.6858 -2.032,1.016 -1.27,0.3048 -3.2004,0.3048 z" />
      <path
         id="path2835"
         style="font-style:normal;font-variant:normal;font-weight:normal;font-stretch:normal;font-size:25.4px;font-family:Neuropolitical;-inkscape-font-specification:'Neuropolitical, Normal';font-variant-ligatures:normal;font-variant-caps:normal;font-variant-numeric:normal;font-variant-east-asian:normal;fill:#b5d6dd;fill-opacity:1"
         d="m 100.49275,147.19424 v -17.3228 h 3.8608 v 17.3228 z" />
      <path
         id="path2837"
         style="font-style:normal;font-variant:normal;font-weight:normal;font-stretch:normal;font-size:25.4px;font-family:Neuropolitical;-inkscape-font-specification:'Neuropolitical, Normal';font-variant-ligatures:normal;font-variant-caps:normal;font-variant-numeric:normal;font-variant-east-asian:normal;fill:#b5d6dd;fill-opacity:1"
         d="m 113.94046,147.19424 q -1.905,0 -3.175,-0.3048 -1.27,-0.3302 -2.032,-1.016 -0.762,-0.7112 -1.0922,-1.8288 -0.3048,-1.143 -0.3048,-2.794 v -11.3792 h 3.8354 v 11.2268 q 0,0.762 0.127,1.2954 0.1524,0.508 0.508,0.8636 0.3556,0.3302 0.9398,0.4826 0.6096,0.1524 1.524,0.1524 h 10.287 v 3.302 z" />
      <path
         id="path2839"
         style="font-style:normal;font-variant:normal;font-weight:normal;font-stretch:normal;font-size:25.4px;font-family:Neuropolitical;-inkscape-font-specification:'Neuropolitical, Normal';font-variant-ligatures:normal;font-variant-caps:normal;font-variant-numeric:normal;font-variant-east-asian:normal;fill:#b5d6dd;fill-opacity:1"
         d="m 144.16408,143.20644 h -11.9888 l -2.4638,3.9878 h -4.445 l 10.0584,-16.002 q 0.4572,-0.7366 1.0922,-1.2192 0.635,-0.4826 1.8288,-0.4826 1.1684,0 1.8034,0.4826 0.635,0.4826 1.0922,1.2192 l 10.0076,16.002 h -4.4704 z m -10.1854,-2.9718 h 8.382 l -4.191,-6.8326 z" />
    </g>
    <text
       style="fill:black;fill-opacity:1;line-height:1.25;stroke:none;font-family:sans-serif;font-style:normal;font-weight:normal;font-size:10.58333333px;white-space:pre;shape-inside:url(#rect1951);"
       id="text1949"
       xml:space="preserve" />
  </g>
</svg>
